<svg version="1.1" id="Layer_1" xmlns="http://www.w3.org/2000/svg" xmlns:xlink="http://www.w3.org/1999/xlink" x="0px" y="0px"
	 width="100%" viewBox="0 0 1024 1024" enable-background="new 0 0 1024 1024" xml:space="preserve">
<path fill="#000000" opacity="1.000000" stroke="none" 
	d="
M669.000000,1025.000000 
	C446.000000,1025.000000 223.500000,1025.000000 1.000000,1025.000000 
	C1.000000,683.666687 1.000000,342.333344 1.000000,1.000000 
	C342.333344,1.000000 683.666687,1.000000 1025.000000,1.000000 
	C1025.000000,342.333344 1025.000000,683.666687 1025.000000,1025.000000 
	C906.500000,1025.000000 788.000000,1025.000000 669.000000,1025.000000 
M673.991882,379.000580 
	C673.991882,379.000580 674.039368,378.974518 673.813721,378.348022 
	C672.232239,376.538452 670.650696,374.728851 669.000793,372.184753 
	C665.718140,367.433258 662.751709,362.418427 659.070679,357.998779 
	C654.736816,352.795319 650.052795,347.808258 645.020081,343.284210 
	C640.374756,339.108429 635.067200,335.669312 629.997803,331.204468 
	C619.539490,321.081635 606.867004,314.425140 593.291870,307.823975 
	C587.323486,305.460968 581.283875,303.261627 575.400696,300.702698 
	C560.749756,294.330200 545.106201,291.646149 529.505981,290.268524 
	C511.423401,288.671783 493.014374,289.154968 475.247162,293.290192 
	C461.815918,296.416199 448.481354,300.775970 435.855469,306.303619 
	C424.230225,311.393219 413.432648,318.492950 402.610901,325.252289 
	C396.386505,329.140106 390.362183,333.618317 385.098175,338.709930 
	C377.335571,346.218384 369.686493,354.020538 363.168060,362.594025 
	C355.139496,373.153656 347.048553,384.015533 341.292084,395.867554 
	C333.471283,411.969849 327.126770,428.781219 324.689453,446.957245 
	C322.818573,460.909241 320.677429,474.615540 321.823151,488.819214 
	C323.215637,506.081512 326.233612,522.832703 331.836243,539.257751 
	C336.845764,553.944031 343.331909,567.884888 350.796082,581.401550 
	C356.955597,592.555603 363.377167,603.570068 369.919006,614.504944 
	C371.939636,617.882446 374.736755,620.795471 377.047668,624.664612 
	C377.219238,625.444641 377.175690,626.373352 377.595947,626.981567 
	C381.427856,632.527222 385.284363,638.057922 389.244354,643.512512 
	C393.723175,649.681702 398.316132,655.767944 403.016052,662.613464 
	C405.774567,666.277344 408.533081,669.941223 411.806641,674.190491 
	C416.326508,680.351257 420.678467,686.644409 425.408600,692.639343 
	C431.380920,700.208557 437.661499,707.534485 443.982697,715.689331 
	C445.622711,717.473328 447.262726,719.257324 449.009430,721.781372 
	C450.439209,723.733398 451.722076,725.817017 453.328308,727.611145 
	C457.118805,731.844971 461.063263,735.941040 465.234100,740.732605 
	C469.171967,745.576660 473.109802,750.420715 477.177887,755.699829 
	C477.385895,755.944031 477.648834,756.088257 477.969635,756.066284 
	C477.969635,756.066284 477.904694,756.079712 478.186401,756.701050 
	C481.229523,760.048401 484.377869,763.307129 487.289856,766.764954 
	C491.147797,771.346008 494.498657,776.397888 498.667236,780.660889 
	C502.561737,784.643616 508.094849,786.285767 513.463989,785.831360 
	C519.801758,785.294983 525.387329,783.625916 529.847778,777.356201 
	C536.935974,767.392944 546.108826,758.941956 553.965027,749.489807 
	C570.799988,729.235046 587.520874,708.879944 603.951294,688.296875 
	C611.017822,679.444397 617.326721,669.979187 623.833679,660.690002 
	C631.059143,650.375061 638.159241,639.971436 645.234924,629.552795 
	C650.189697,622.256897 655.209961,614.993103 659.837097,607.490540 
	C664.408875,600.077637 668.523499,592.382812 673.273743,584.145630 
	C677.492798,575.550720 682.199219,567.154846 685.811157,558.311951 
	C690.647278,546.472168 694.704529,534.310303 698.937683,522.231201 
	C699.943665,519.360779 700.495972,516.296143 700.950439,513.274780 
	C702.011047,506.224121 702.885376,499.145447 703.978516,491.133820 
	C704.760193,474.796631 703.644714,458.560913 699.892334,442.666779 
	C697.376526,432.010529 694.344727,421.376007 690.355225,411.197632 
	C686.806641,402.143982 681.622681,393.731384 677.021973,384.307159 
	C676.315918,383.106873 675.609802,381.906616 674.923584,380.518005 
	C674.923584,380.518005 674.820435,380.359192 674.902100,379.724426 
	C674.599976,379.465149 674.297913,379.205872 673.991882,379.000580 
z"/>
<path fill="#8DE058" opacity="1.000000" stroke="none" 
	d="
M464.945465,740.092773 
	C461.063263,735.941040 457.118805,731.844971 453.328308,727.611145 
	C451.722076,725.817017 450.439209,723.733398 449.226929,721.407715 
	C449.625092,721.031006 449.805695,721.028076 450.086365,721.122437 
	C450.366333,721.227112 450.546265,721.234375 450.726166,721.241638 
	C450.495300,721.150696 450.264435,721.059814 449.995056,720.609253 
	C449.170898,717.983826 447.072418,714.989441 447.848785,713.590393 
	C450.074860,709.578918 451.636841,704.496765 457.409302,703.541992 
	C459.322235,703.225647 461.323700,702.361145 462.890228,701.210327 
	C472.657410,694.035034 482.818146,687.278564 491.864960,679.271973 
	C501.174622,671.032654 509.397156,661.558838 518.030273,652.562805 
	C526.702515,643.526062 535.028748,634.137451 544.025330,625.439514 
	C549.097107,620.536133 555.131836,616.599915 560.880005,612.431030 
	C572.397705,604.077942 584.128967,596.015381 595.542236,587.524048 
	C600.640930,583.730652 605.184875,579.191467 609.988281,574.992493 
	C609.995972,574.994263 609.996948,574.982971 610.353516,574.959961 
	C612.126587,573.603455 613.543030,572.269897 615.133057,570.671753 
	C616.481445,569.571228 617.656311,568.735168 619.169373,567.846802 
	C620.325684,566.839478 621.143860,565.884521 622.137573,564.659424 
	C623.876221,562.926819 625.439453,561.464233 627.360718,559.972961 
	C632.933289,557.322876 637.305603,553.910156 639.119995,547.717041 
	C639.808838,546.965637 640.354553,546.457275 641.247986,545.881470 
	C643.049683,543.868530 644.503540,541.923096 645.963989,539.974609 
	C645.970459,539.971497 645.958496,539.946411 646.294617,539.875366 
	C648.056213,538.698547 649.928955,537.875610 650.835876,536.441833 
	C657.574524,525.789062 665.062683,515.461426 670.432190,504.138672 
	C674.766418,494.999054 681.211182,488.983521 689.606689,484.606781 
	C698.483643,479.979218 699.962463,481.091553 700.020020,491.495483 
	C699.020569,498.629517 698.018005,505.325745 696.588257,512.015930 
	C690.943970,511.347992 687.581848,513.741272 684.425537,517.841675 
	C680.635010,522.766113 676.150635,527.237732 671.525024,531.416565 
	C666.402954,536.043823 660.507202,539.821350 655.440308,544.501465 
	C647.257202,552.059937 642.289368,562.474121 630.471924,566.897644 
	C619.878418,570.862976 616.852295,583.935608 608.203064,590.922668 
	C608.090881,591.013306 608.117981,591.266113 608.010681,591.374512 
	C603.997925,595.428528 600.058533,599.560547 595.920593,603.482971 
	C594.025940,605.278931 591.669983,606.577026 589.642090,608.245422 
	C583.617554,613.201843 577.271118,617.846497 571.757202,623.324402 
	C564.413635,630.620117 557.132996,638.136536 550.964844,646.407959 
	C546.126831,652.895813 542.733643,660.297241 534.478760,663.491211 
	C531.432251,664.669922 528.677673,666.705994 525.960693,668.596436 
	C524.234253,669.797546 522.612122,671.285095 521.313293,672.935486 
	C518.676819,676.285400 516.866150,680.516846 513.700317,683.177490 
	C501.718811,693.247375 490.452637,704.142151 477.016449,712.553589 
	C470.650604,716.538696 461.495911,719.583618 461.747772,729.664246 
	C461.826019,732.797119 463.892303,735.880249 465.024963,739.263000 
	C464.982819,739.724121 464.964142,739.908447 464.945465,740.092773 
z"/>
<path fill="#4DC786" opacity="1.000000" stroke="none" 
	d="
M443.809082,714.965393 
	C437.661499,707.534485 431.380920,700.208557 425.408600,692.639343 
	C420.678467,686.644409 416.326508,680.351257 412.019012,673.850708 
	C413.766083,674.030701 415.279205,674.893860 416.840332,674.991882 
	C419.348358,675.149231 422.485565,675.693909 424.293335,674.484802 
	C428.369537,671.758484 432.077179,668.319397 435.421051,664.696289 
	C441.015808,658.634277 446.220062,652.211060 451.560333,645.915894 
	C452.411469,644.912537 453.179260,643.824036 453.876526,642.706909 
	C459.616302,633.510864 466.298706,625.097107 474.326569,617.775269 
	C478.530273,613.941223 482.670441,610.037659 487.459564,605.589355 
	C479.228455,602.458984 472.024719,599.719360 465.113708,596.762085 
	C466.589172,596.295715 467.771942,596.046997 469.212646,595.895691 
	C469.642944,596.053345 469.815247,596.113525 470.158142,596.322266 
	C470.566071,596.658020 470.820099,596.818787 471.491425,596.978088 
	C473.001068,597.223694 474.154083,597.317566 475.212555,597.684387 
	C488.607666,602.324829 502.537781,603.642456 516.552307,603.878845 
	C522.358093,603.976746 528.185852,602.768066 534.054260,602.476440 
	C535.483948,603.224121 536.877380,604.048462 538.239563,603.999695 
	C542.496582,603.847534 546.737549,603.247437 550.994629,603.090698 
	C552.121155,603.049255 553.986145,603.742554 554.250183,604.524475 
	C554.574585,605.485229 553.939697,607.380432 553.083496,608.018860 
	C550.089539,610.251282 547.062561,613.093750 543.614136,613.943665 
	C531.801270,616.855164 524.468140,626.621399 514.398560,632.101074 
	C514.173767,632.223389 514.138550,632.694031 514.010315,633.005005 
	C514.005737,633.007812 513.997314,633.013916 513.670532,633.036255 
	C512.553101,633.685364 511.762482,634.312134 510.751617,635.113159 
	C510.012054,635.489929 509.492706,635.692383 508.766937,635.790894 
	C508.033691,636.112793 507.506866,636.538818 506.764740,637.146118 
	C506.036285,637.547180 505.523163,637.766907 504.806824,637.865051 
	C504.063690,638.156494 503.523804,638.569458 502.769226,639.012451 
	C502.554565,639.042480 502.122131,639.073486 501.777740,639.114807 
	C500.280090,640.086182 499.126862,641.016296 497.740204,642.169312 
	C496.344482,642.938660 495.182129,643.484985 493.766296,643.879700 
	C491.007050,645.484375 488.501312,647.240662 485.768524,649.225708 
	C484.063721,650.323730 482.585907,651.193054 480.810883,652.138794 
	C480.008179,652.803650 479.502686,653.392151 478.766174,654.219055 
	C461.101868,667.638550 449.166473,684.341187 445.354797,706.249756 
	C444.849060,709.156677 444.324768,712.060242 443.809082,714.965393 
z"/>
<path fill="#12B5AC" opacity="1.000000" stroke="none" 
	d="
M468.954681,595.798279 
	C467.771942,596.046997 466.589172,596.295715 464.817017,596.907532 
	C452.862152,604.474426 441.112610,611.147095 430.229614,619.018066 
	C416.989655,628.593506 407.075043,640.857727 404.640198,657.832886 
	C404.438141,659.241455 403.471100,660.540405 402.859436,661.890259 
	C398.316132,655.767944 393.723175,649.681702 389.244354,643.512512 
	C385.284363,638.057922 381.427856,632.527222 377.595947,626.981567 
	C377.175690,626.373352 377.219238,625.444641 377.410339,624.182861 
	C378.141754,621.813049 378.510468,619.924927 378.971832,617.667847 
	C382.708527,604.915649 387.540588,593.084351 396.449860,583.472534 
	C402.082916,577.395203 408.193207,571.760254 414.397003,565.788086 
	C417.086700,564.728699 419.468811,563.808228 421.993286,563.210693 
	C423.650543,564.770081 425.180725,565.988464 426.677704,567.246338 
	C432.245758,571.924805 437.428192,577.183838 443.455780,581.164185 
	C451.617584,586.553772 460.424500,590.966492 468.954681,595.798279 
z"/>
<path fill="#A1E457" opacity="1.000000" stroke="none" 
	d="
M697.015503,512.021973 
	C698.018005,505.325745 699.020569,498.629517 700.343079,491.552643 
	C701.720459,491.474030 702.777771,491.776062 703.835144,492.078125 
	C702.885376,499.145447 702.011047,506.224121 700.950439,513.274780 
	C700.495972,516.296143 699.943665,519.360779 698.937683,522.231201 
	C694.704529,534.310303 690.647278,546.472168 685.811157,558.311951 
	C682.199219,567.154846 677.492798,575.550720 672.818054,584.296265 
	C670.333496,585.575562 667.929443,586.322815 666.333984,587.892151 
	C650.815491,603.155884 633.581055,616.177979 614.874390,627.216248 
	C595.519409,638.636902 576.000977,649.781860 556.493469,660.941467 
	C552.495178,663.228821 548.228577,665.047119 544.148071,666.739563 
	C545.941040,664.946350 547.586609,663.375305 549.422729,662.072937 
	C551.979431,660.259460 555.445801,659.208435 557.175415,656.844971 
	C562.700134,649.295410 569.546753,643.349548 576.690552,637.412598 
	C582.751587,632.375488 587.467529,625.723267 592.804138,619.808655 
	C594.119507,618.350830 595.277954,616.338013 596.943909,615.675781 
	C609.308350,610.761230 615.196655,598.525513 625.215027,590.974365 
	C629.122437,588.029236 632.383057,584.238953 636.065063,580.976868 
	C638.128479,579.148865 640.231079,577.100952 642.697937,576.040894 
	C650.768372,572.572571 656.272278,565.689575 660.053955,558.919739 
	C663.473511,552.798096 668.123108,549.348083 673.449341,547.716980 
	C681.228271,545.334839 682.924561,536.320984 690.430420,534.341003 
	C690.538635,534.312439 690.615967,534.070007 690.661316,533.913879 
	C692.782593,526.617554 694.898743,519.319641 697.015503,512.021973 
z"/>
<path fill="#3FC48F" opacity="1.000000" stroke="none" 
	d="
M402.937744,662.251831 
	C403.471100,660.540405 404.438141,659.241455 404.640198,657.832886 
	C407.075043,640.857727 416.989655,628.593506 430.229614,619.018066 
	C441.112610,611.147095 452.862152,604.474426 464.524292,597.125183 
	C472.024719,599.719360 479.228455,602.458984 487.459564,605.589355 
	C482.670441,610.037659 478.530273,613.941223 474.326569,617.775269 
	C466.298706,625.097107 459.616302,633.510864 453.876526,642.706909 
	C453.179260,643.824036 452.411469,644.912537 451.560333,645.915894 
	C446.220062,652.211060 441.015808,658.634277 435.421051,664.696289 
	C432.077179,668.319397 428.369537,671.758484 424.293335,674.484802 
	C422.485565,675.693909 419.348358,675.149231 416.840332,674.991882 
	C415.279205,674.893860 413.766083,674.030701 411.761505,673.557983 
	C408.533081,669.941223 405.774567,666.277344 402.937744,662.251831 
z"/>
<path fill="#32C29F" opacity="1.000000" stroke="none" 
	d="
M630.051331,331.905762 
	C635.067200,335.669312 640.374756,339.108429 645.020081,343.284210 
	C650.052795,347.808258 654.736816,352.795319 659.070679,357.998779 
	C662.751709,362.418427 665.718140,367.433258 668.829468,372.845093 
	C670.166199,377.302826 671.674316,381.100250 673.252686,385.146301 
	C673.342407,385.566162 673.361816,385.737305 673.127197,386.150360 
	C673.626282,388.239594 674.379517,390.086945 675.161743,392.157104 
	C675.190674,392.379974 675.180786,392.829346 675.116211,393.181915 
	C675.011169,394.007050 674.970764,394.479645 674.622925,395.124634 
	C672.351685,399.225616 671.158569,403.887817 668.263062,406.929413 
	C662.308960,413.183655 655.562134,418.714142 648.876404,424.220520 
	C647.070984,425.707489 644.327637,426.077209 641.990234,426.889191 
	C640.446777,427.425446 638.651001,427.511871 637.330322,428.362122 
	C633.002563,431.148163 629.545349,430.120300 626.323669,426.538788 
	C625.360229,425.467712 624.061707,424.698029 622.929016,423.424347 
	C623.251404,421.950745 623.568665,420.845062 623.870361,419.735107 
	C627.561523,406.154114 631.250305,392.572510 634.954102,378.523132 
	C634.999146,373.909546 634.854492,369.753723 635.093445,365.620117 
	C635.778442,353.774506 634.041077,342.477722 628.369995,332.037323 
	C629.155090,331.979156 629.603210,331.942444 630.051331,331.905762 
z"/>
<path fill="#84DD5E" opacity="1.000000" stroke="none" 
	d="
M481.108093,652.062439 
	C482.585907,651.193054 484.063721,650.323730 486.107117,649.152100 
	C489.121735,647.243591 491.570770,645.637451 494.019775,644.031372 
	C495.182129,643.484985 496.344482,642.938660 498.074890,642.120483 
	C499.802673,640.923645 500.962402,639.998535 502.122131,639.073486 
	C502.122131,639.073486 502.554565,639.042480 503.054260,638.962524 
	C504.039276,638.583862 504.524658,638.285217 505.010040,637.986572 
	C505.523163,637.766907 506.036285,637.547180 507.050720,637.092041 
	C508.025818,636.536011 508.499603,636.215454 508.973389,635.894897 
	C509.492706,635.692383 510.012054,635.489929 511.061707,635.068787 
	C512.393799,634.238098 513.195557,633.626038 513.997314,633.013916 
	C513.997314,633.013916 514.005737,633.007812 514.374451,632.941101 
	C518.845520,630.847229 523.122131,629.107666 527.021667,626.745667 
	C549.970642,612.844543 572.859863,598.843750 595.700500,584.765198 
	C600.605347,581.742004 605.227966,578.260864 609.980591,574.990723 
	C605.184875,579.191467 600.640930,583.730652 595.542236,587.524048 
	C584.128967,596.015381 572.397705,604.077942 560.880005,612.431030 
	C555.131836,616.599915 549.097107,620.536133 544.025330,625.439514 
	C535.028748,634.137451 526.702515,643.526062 518.030273,652.562805 
	C509.397156,661.558838 501.174622,671.032654 491.864960,679.271973 
	C482.818146,687.278564 472.657410,694.035034 462.890228,701.210327 
	C461.323700,702.361145 459.322235,703.225647 457.409302,703.541992 
	C451.636841,704.496765 450.074860,709.578918 447.848785,713.590393 
	C447.072418,714.989441 449.170898,717.983826 449.981995,720.622437 
	C450.007477,720.995300 449.986328,721.025146 449.986328,721.025146 
	C449.805695,721.028076 449.625092,721.031006 449.173584,721.037659 
	C447.262726,719.257324 445.622711,717.473328 443.895874,715.327393 
	C444.324768,712.060242 444.849060,709.156677 445.354797,706.249756 
	C449.166473,684.341187 461.101868,667.638550 479.052551,654.129395 
	C480.082611,653.221680 480.595337,652.642029 481.108093,652.062439 
z"/>
<path fill="#24AFDB" opacity="1.000000" stroke="none" 
	d="
M378.879150,618.036804 
	C378.510468,619.924927 378.141754,621.813049 377.475677,623.811157 
	C374.736755,620.795471 371.939636,617.882446 369.919006,614.504944 
	C363.377167,603.570068 356.955597,592.555603 350.796082,581.401550 
	C343.331909,567.884888 336.845764,553.944031 331.836243,539.257751 
	C326.233612,522.832703 323.215637,506.081512 321.823151,488.819214 
	C320.677429,474.615540 322.818573,460.909241 324.689453,446.957245 
	C327.126770,428.781219 333.471283,411.969849 341.292084,395.867554 
	C347.048553,384.015533 355.139496,373.153656 363.168060,362.594025 
	C369.686493,354.020538 377.335571,346.218384 385.098175,338.709930 
	C390.362183,333.618317 396.386505,329.140106 402.610901,325.252289 
	C413.432648,318.492950 424.230225,311.393219 435.855469,306.303619 
	C448.481354,300.775970 461.815918,296.416199 475.247162,293.290192 
	C493.014374,289.154968 511.423401,288.671783 529.505981,290.268524 
	C545.106201,291.646149 560.749756,294.330200 575.400696,300.702698 
	C581.283875,303.261627 587.323486,305.460968 593.424194,308.187408 
	C593.055908,309.062286 592.555298,309.573761 591.667236,310.035461 
	C585.515808,307.986633 579.751831,305.987579 573.648010,303.835388 
	C560.538818,300.785309 547.769409,297.888367 534.574646,294.971680 
	C524.436157,294.622070 514.723022,294.292267 504.556641,293.958618 
	C500.306915,294.297180 496.514709,294.697845 492.713379,294.972565 
	C467.190125,296.817017 443.590576,305.177795 421.531219,317.510803 
	C397.612274,330.883392 377.679840,349.105865 361.284302,371.159302 
	C351.925079,383.748291 344.174255,397.167664 338.698303,412.241302 
	C333.192139,423.410309 329.903015,434.869812 328.786835,447.200439 
	C328.408630,447.949829 328.206146,448.475922 327.995514,449.334412 
	C327.985748,450.110168 327.984161,450.553528 327.947266,451.376251 
	C327.607971,453.503754 327.303986,455.251892 326.992432,457.371735 
	C326.976593,458.485992 326.968384,459.228485 326.759766,460.328918 
	C326.367584,470.790436 326.175812,480.894043 325.981934,491.453003 
	C326.387665,496.205566 326.426941,500.577271 327.276855,504.785248 
	C329.316833,514.885498 331.737366,524.908936 334.137817,535.307495 
	C337.148560,542.766907 340.025879,549.882263 343.048218,557.325500 
	C350.939484,578.159363 363.575287,596.040527 374.143982,615.027527 
	C374.943634,616.464111 377.265076,617.053589 378.879150,618.036804 
z"/>
<path fill="#84DD5E" opacity="1.000000" stroke="none" 
	d="
M675.180786,392.829346 
	C675.180786,392.829346 675.190674,392.379974 675.180908,391.783508 
	C674.574463,389.427490 673.977905,387.667999 673.381287,385.908478 
	C673.361816,385.737305 673.342407,385.566162 673.249390,384.794037 
	C673.463623,382.453552 673.751526,380.714050 674.039368,378.974518 
	C674.039368,378.974518 673.991882,379.000580 674.075562,379.236633 
	C674.379639,379.768219 674.600037,380.063690 674.820435,380.359192 
	C674.820435,380.359192 674.923584,380.518005 674.919800,380.993958 
	C675.664185,382.658569 676.412354,383.847198 677.160522,385.035828 
	C681.622681,393.731384 686.806641,402.143982 690.355225,411.197632 
	C694.344727,421.376007 697.376526,432.010529 699.892334,442.666779 
	C703.644714,458.560913 704.760193,474.796631 703.906860,491.605957 
	C702.777771,491.776062 701.720459,491.474030 700.339966,491.114868 
	C699.962463,481.091553 698.483643,479.979218 689.606689,484.606781 
	C681.211182,488.983521 674.766418,494.999054 670.432190,504.138672 
	C665.062683,515.461426 657.574524,525.789062 650.835876,536.441833 
	C649.928955,537.875610 648.056213,538.698547 646.383728,539.546021 
	C646.448486,538.704712 646.681641,538.060059 647.083435,537.547852 
	C659.307922,521.964722 668.286621,504.647064 673.993713,485.733215 
	C676.228943,478.325409 677.321960,470.572937 678.966553,462.652649 
	C679.009644,461.892944 679.021362,461.458008 679.233521,460.687317 
	C679.912903,456.565460 680.391785,452.779388 680.898804,448.557007 
	C680.961365,446.080750 680.995850,444.040771 681.060730,441.574341 
	C681.063110,435.762970 681.035095,430.378052 681.010193,424.563293 
	C680.730896,421.095947 680.448486,418.058441 680.287109,414.827881 
	C680.280334,414.086060 680.152466,413.537231 680.000244,412.667786 
	C679.704651,411.548126 679.433472,410.749146 679.167542,409.527832 
	C678.504517,406.046631 677.836243,402.987793 677.154419,399.587891 
	C676.824158,398.163544 676.507446,397.080231 676.178040,395.656158 
	C675.837158,394.486694 675.508972,393.658020 675.180786,392.829346 
z"/>
<path fill="#DF7B42" opacity="1.000000" stroke="none" 
	d="
M544.085632,667.081665 
	C548.228577,665.047119 552.495178,663.228821 556.493469,660.941467 
	C576.000977,649.781860 595.519409,638.636902 614.874390,627.216248 
	C633.581055,616.177979 650.815491,603.155884 666.333984,587.892151 
	C667.929443,586.322815 670.333496,585.575562 672.600464,584.629272 
	C668.523499,592.382812 664.408875,600.077637 659.837097,607.490540 
	C655.209961,614.993103 650.189697,622.256897 645.234924,629.552795 
	C638.159241,639.971436 631.059143,650.375061 623.833679,660.690002 
	C617.326721,669.979187 611.017822,679.444397 603.951294,688.296875 
	C587.520874,708.879944 570.799988,729.235046 553.965027,749.489807 
	C546.108826,758.941956 536.935974,767.392944 529.847778,777.356201 
	C525.387329,783.625916 519.801758,785.294983 513.463989,785.831360 
	C508.094849,786.285767 502.561737,784.643616 498.667236,780.660889 
	C494.498657,776.397888 491.147797,771.346008 487.289856,766.764954 
	C484.377869,763.307129 481.229523,760.048401 478.445374,756.352539 
	C479.578674,754.440308 480.992218,752.958008 481.242615,751.300110 
	C483.407990,736.961121 487.607178,723.304749 495.884644,711.331909 
	C501.058685,703.848083 507.259338,697.073975 513.290771,689.853943 
	C515.089539,688.272339 516.596863,686.818237 518.428589,685.255310 
	C520.183472,683.788269 521.614014,682.430054 523.039368,681.044739 
	C523.034241,681.017639 523.066956,681.063538 523.415955,681.036255 
	C530.523132,676.358398 537.281250,671.707825 544.049683,667.061462 
	C544.060059,667.065674 544.085632,667.081665 544.085632,667.081665 
M654.941833,605.265015 
	C652.801880,601.092102 650.781250,604.417786 649.127991,605.577637 
	C636.102966,614.715088 623.192932,624.016235 610.197510,633.196228 
	C607.248901,635.279175 604.105164,637.085876 600.358826,639.195251 
	C599.159851,639.763672 597.918091,640.257019 596.768311,640.911804 
	C579.415527,650.795837 561.988770,660.553955 544.750732,670.634521 
	C516.113770,687.380798 493.506683,709.025208 485.478607,742.896912 
	C482.438141,755.725098 484.754181,763.852356 495.013855,769.804993 
	C495.984009,771.513184 496.788574,773.344421 497.951538,774.909302 
	C504.761475,784.073364 517.710754,785.079407 525.643982,776.831055 
	C531.855713,770.372559 537.884949,763.711243 543.620117,756.827393 
	C554.564819,743.690674 565.242004,730.330994 576.586670,716.683899 
	C577.320435,716.010559 578.186523,715.435303 578.768738,714.649719 
	C599.539734,686.622803 620.473816,658.713257 640.906555,630.441467 
	C646.401550,622.838318 650.360474,614.125061 654.941833,605.265015 
z"/>
<path fill="#A1E457" opacity="1.000000" stroke="none" 
	d="
M512.999329,689.981445 
	C507.259338,697.073975 501.058685,703.848083 495.884644,711.331909 
	C487.607178,723.304749 483.407990,736.961121 481.242615,751.300110 
	C480.992218,752.958008 479.578674,754.440308 478.304535,756.041870 
	C477.904694,756.079712 477.969635,756.066284 477.855499,755.913757 
	C477.546814,755.544495 477.315582,755.378967 477.047668,755.264709 
	C473.109802,750.420715 469.171967,745.576660 465.089783,740.412720 
	C464.964142,739.908447 464.982819,739.724121 465.392334,739.296631 
	C472.437317,741.419312 473.724304,735.569397 476.453369,732.016968 
	C478.232819,729.700684 479.300964,726.162170 481.595551,725.058289 
	C486.360107,722.766235 488.430969,718.649048 491.194427,714.766968 
	C496.454498,707.377625 501.946960,700.143738 507.613068,693.061462 
	C508.814575,691.559631 511.173615,690.983887 512.999329,689.981445 
z"/>
<path fill="#12B5AC" opacity="1.000000" stroke="none" 
	d="
M592.054626,310.085205 
	C592.555298,309.573761 593.055908,309.062286 593.747070,308.360840 
	C606.867004,314.425140 619.539490,321.081635 630.024536,331.555115 
	C629.603210,331.942444 629.155090,331.979156 628.030151,331.940063 
	C625.551208,330.726227 623.796936,329.502655 621.938965,328.464569 
	C612.643433,323.270935 603.320862,318.125916 593.864014,312.707886 
	C593.164978,311.663055 592.609802,310.874146 592.054626,310.085205 
z"/>
<path fill="#4DC786" opacity="1.000000" stroke="none" 
	d="
M673.926514,378.661255 
	C673.751526,380.714050 673.463623,382.453552 673.179077,384.545349 
	C671.674316,381.100250 670.166199,377.302826 668.863647,373.212341 
	C670.650696,374.728851 672.232239,376.538452 673.926514,378.661255 
z"/>
<path fill="#4DC786" opacity="1.000000" stroke="none" 
	d="
M677.091248,384.671478 
	C676.412354,383.847198 675.664185,382.658569 674.909912,381.088135 
	C675.609802,381.906616 676.315918,383.106873 677.091248,384.671478 
z"/>
<path fill="#DF7B42" opacity="1.000000" stroke="none" 
	d="
M477.112793,755.482300 
	C477.315582,755.378967 477.546814,755.544495 477.854034,755.946838 
	C477.648834,756.088257 477.385895,755.944031 477.112793,755.482300 
z"/>
<path fill="#4DC786" opacity="1.000000" stroke="none" 
	d="
M674.861267,380.041809 
	C674.600037,380.063690 674.379639,379.768219 674.077515,379.209656 
	C674.297913,379.205872 674.599976,379.465149 674.861267,380.041809 
z"/>
<path fill="#95E356" opacity="1.000000" stroke="none" 
	d="
M513.290771,689.854004 
	C511.173615,690.983887 508.814575,691.559631 507.613068,693.061462 
	C501.946960,700.143738 496.454498,707.377625 491.194427,714.766968 
	C488.430969,718.649048 486.360107,722.766235 481.595551,725.058289 
	C479.300964,726.162170 478.232819,729.700684 476.453369,732.016968 
	C473.724304,735.569397 472.437317,741.419312 465.415833,739.019775 
	C463.892303,735.880249 461.826019,732.797119 461.747772,729.664246 
	C461.495911,719.583618 470.650604,716.538696 477.016449,712.553589 
	C490.452637,704.142151 501.718811,693.247375 513.700317,683.177490 
	C516.866150,680.516846 518.676819,676.285400 521.313293,672.935486 
	C522.612122,671.285095 524.234253,669.797546 525.960693,668.596436 
	C528.677673,666.705994 531.432251,664.669922 534.478760,663.491211 
	C542.733643,660.297241 546.126831,652.895813 550.964844,646.407959 
	C557.132996,638.136536 564.413635,630.620117 571.757202,623.324402 
	C577.271118,617.846497 583.617554,613.201843 589.642090,608.245422 
	C591.669983,606.577026 594.025940,605.278931 595.920593,603.482971 
	C600.058533,599.560547 603.997925,595.428528 608.010681,591.374512 
	C608.117981,591.266113 608.090881,591.013306 608.203064,590.922668 
	C616.852295,583.935608 619.878418,570.862976 630.471924,566.897644 
	C642.289368,562.474121 647.257202,552.059937 655.440308,544.501465 
	C660.507202,539.821350 666.402954,536.043823 671.525024,531.416565 
	C676.150635,527.237732 680.635010,522.766113 684.425537,517.841675 
	C687.581848,513.741272 690.943970,511.347992 696.588257,512.015930 
	C694.898743,519.319641 692.782593,526.617554 690.661316,533.913879 
	C690.615967,534.070007 690.538635,534.312439 690.430420,534.341003 
	C682.924561,536.320984 681.228271,545.334839 673.449341,547.716980 
	C668.123108,549.348083 663.473511,552.798096 660.053955,558.919739 
	C656.272278,565.689575 650.768372,572.572571 642.697937,576.040894 
	C640.231079,577.100952 638.128479,579.148865 636.065063,580.976868 
	C632.383057,584.238953 629.122437,588.029236 625.215027,590.974365 
	C615.196655,598.525513 609.308350,610.761230 596.943909,615.675781 
	C595.277954,616.338013 594.119507,618.350830 592.804138,619.808655 
	C587.467529,625.723267 582.751587,632.375488 576.690552,637.412598 
	C569.546753,643.349548 562.700134,649.295410 557.175415,656.844971 
	C555.445801,659.208435 551.979431,660.259460 549.422729,662.072937 
	C547.586609,663.375305 545.941040,664.946350 544.148071,666.739563 
	C544.085632,667.081665 544.060059,667.065674 543.660950,667.051636 
	C535.035156,669.560303 528.238953,674.142639 523.066956,681.063538 
	C523.066956,681.063538 523.034241,681.017639 522.674438,681.053955 
	C520.911133,682.514954 519.507629,683.939514 518.104187,685.364136 
	C516.596863,686.818237 515.089539,688.272339 513.290771,689.854004 
z"/>
<path fill="#59CB76" opacity="1.000000" stroke="none" 
	d="
M678.935181,462.977417 
	C677.321960,470.572937 676.228943,478.325409 673.993713,485.733215 
	C668.286621,504.647064 659.307922,521.964722 647.083435,537.547852 
	C646.681641,538.060059 646.448486,538.704712 646.047607,539.617004 
	C645.958496,539.946411 645.970459,539.971497 645.683472,540.147095 
	C643.897766,542.198120 642.398987,544.073547 640.900208,545.948975 
	C640.354553,546.457275 639.808838,546.965637 638.838867,547.895630 
	C634.610535,552.212158 630.806641,556.106873 627.002686,560.001648 
	C625.439453,561.464233 623.876221,562.926819 621.824951,564.752197 
	C620.501770,566.043152 619.666504,566.971191 618.831238,567.899170 
	C617.656311,568.735168 616.481445,569.571228 614.816284,570.761353 
	C612.882996,572.404541 611.439941,573.693787 609.996948,574.982971 
	C609.996948,574.982971 609.995972,574.994263 609.988281,574.992493 
	C605.227966,578.260864 600.605347,581.742004 595.700500,584.765198 
	C572.859863,598.843750 549.970642,612.844543 527.021667,626.745667 
	C523.122131,629.107666 518.845520,630.847229 514.379028,632.938354 
	C514.138550,632.694031 514.173767,632.223389 514.398560,632.101074 
	C524.468140,626.621399 531.801270,616.855164 543.614136,613.943665 
	C547.062561,613.093750 550.089539,610.251282 553.083496,608.018860 
	C553.939697,607.380432 554.574585,605.485229 554.250183,604.524475 
	C553.986145,603.742554 552.121155,603.049255 550.994629,603.090698 
	C546.737549,603.247437 542.496582,603.847534 538.239563,603.999695 
	C536.877380,604.048462 535.483948,603.224121 534.414368,602.290771 
	C543.397644,599.180298 552.426453,597.384583 560.651672,593.763672 
	C570.050354,589.626038 579.846985,585.149170 587.487366,578.530212 
	C601.602417,566.302063 613.849976,552.305847 622.214783,534.978210 
	C628.568420,521.816650 632.581299,508.375916 634.492615,493.815979 
	C635.215576,491.561035 635.906738,489.522644 635.967896,487.465485 
	C636.130981,481.973541 636.023376,476.473511 636.023376,470.976715 
	C636.433899,470.960205 636.844421,470.943726 637.254944,470.927216 
	C637.492126,472.999573 638.051208,475.093781 637.912170,477.140564 
	C637.216125,487.387360 636.241211,497.615814 635.610229,507.865875 
	C635.495605,509.728088 635.912598,512.585510 637.135498,513.394836 
	C641.550049,516.316345 652.846802,514.255737 656.187683,510.359497 
	C664.548218,500.609070 671.183228,489.975494 674.056335,477.194336 
	C675.148621,472.335327 677.278259,467.709534 678.935181,462.977417 
z"/>
<path fill="#84DD5E" opacity="1.000000" stroke="none" 
	d="
M627.360718,559.972961 
	C630.806641,556.106873 634.610535,552.212158 638.695679,548.138733 
	C637.305603,553.910156 632.933289,557.322876 627.360718,559.972961 
z"/>
<path fill="#84DD5E" opacity="1.000000" stroke="none" 
	d="
M641.247986,545.881470 
	C642.398987,544.073547 643.897766,542.198120 645.677002,540.150146 
	C644.503540,541.923096 643.049683,543.868530 641.247986,545.881470 
z"/>
<path fill="#84DD5E" opacity="1.000000" stroke="none" 
	d="
M610.353516,574.959961 
	C611.439941,573.693787 612.882996,572.404541 614.642700,571.025818 
	C613.543030,572.269897 612.126587,573.603455 610.353516,574.959961 
z"/>
<path fill="#84DD5E" opacity="1.000000" stroke="none" 
	d="
M619.169373,567.846802 
	C619.666504,566.971191 620.501770,566.043152 621.649536,565.022339 
	C621.143860,565.884521 620.325684,566.839478 619.169373,567.846802 
z"/>
<path fill="#84DD5E" opacity="1.000000" stroke="none" 
	d="
M450.020508,720.982117 
	C450.264435,721.059814 450.495300,721.150696 450.726166,721.241638 
	C450.546265,721.234375 450.366333,721.227112 450.086365,721.122437 
	C449.986328,721.025146 450.007477,720.995300 450.020508,720.982117 
z"/>
<path fill="#000000" opacity="1.000000" stroke="none" 
	d="
M634.173523,494.023987 
	C632.581299,508.375916 628.568420,521.816650 622.214783,534.978210 
	C613.849976,552.305847 601.602417,566.302063 587.487366,578.530212 
	C579.846985,585.149170 570.050354,589.626038 560.651672,593.763672 
	C552.426453,597.384583 543.397644,599.180298 534.363770,601.967896 
	C528.185852,602.768066 522.358093,603.976746 516.552307,603.878845 
	C502.537781,603.642456 488.607666,602.324829 475.212555,597.684387 
	C474.154083,597.317566 473.001068,597.223694 471.399414,596.733032 
	C470.600464,596.366577 470.294006,596.270142 469.987579,596.173706 
	C469.815247,596.113525 469.642944,596.053345 469.212646,595.895691 
	C460.424500,590.966492 451.617584,586.553772 443.455780,581.164185 
	C437.428192,577.183838 432.245758,571.924805 426.677704,567.246338 
	C425.180725,565.988464 423.650543,564.770081 421.925415,562.890991 
	C411.435608,550.599976 403.597473,537.447571 398.016052,522.992615 
	C392.613007,508.999451 390.119690,494.215607 390.347260,479.424652 
	C390.532867,467.362640 392.595215,455.308655 396.587494,443.520050 
	C400.806763,431.061127 406.636932,419.687775 414.137329,409.108887 
	C420.977325,399.461426 429.138580,391.071106 438.570465,383.730072 
	C453.264740,372.293152 469.500793,364.898834 487.654938,360.808136 
	C501.866302,357.605865 516.045471,356.761017 530.209595,359.198212 
	C540.013306,360.885132 549.876892,363.474304 559.041016,367.280182 
	C568.427246,371.178253 576.993958,377.049561 586.062256,382.372620 
	C594.055481,390.544800 602.229187,398.111481 609.635559,406.366547 
	C614.110535,411.354340 617.394775,417.410492 621.139038,423.354004 
	C622.770752,427.640381 624.525452,431.539368 626.174133,435.482635 
	C629.606873,443.692963 633.086853,451.898315 633.134888,461.331665 
	C633.371643,462.120270 633.672363,462.602448 633.993652,463.404236 
	C634.072998,464.145233 634.131836,464.566589 634.120361,465.425232 
	C634.061157,467.175598 634.077332,468.488708 634.082520,469.801849 
	C634.114319,477.875885 634.143494,485.949951 634.173523,494.023987 
M572.527344,487.892487 
	C572.608521,487.573761 572.689697,487.255035 572.946594,486.172729 
	C575.294067,480.103088 574.091431,472.661011 569.899170,470.076935 
	C560.019043,463.986938 549.986755,458.143585 539.366394,451.892029 
	C535.540161,449.604767 531.751648,447.251129 527.878479,445.046326 
	C522.601685,442.042542 517.229187,439.206848 511.954407,436.199799 
	C505.008392,432.239960 498.310699,427.791748 491.156372,424.262817 
	C480.965668,419.236115 472.404968,424.381775 472.149628,435.789978 
	C471.811493,450.897675 472.148407,466.020508 472.067841,481.926147 
	C472.107605,483.266296 472.147400,484.606476 472.028015,486.770233 
	C472.077911,488.162994 472.127808,489.555725 472.056091,491.652649 
	C472.095367,492.126404 472.134674,492.600159 472.020264,493.922943 
	C472.066833,496.214264 472.113403,498.505585 472.038086,501.702484 
	C472.075287,503.223236 472.112518,504.743988 472.006805,506.868622 
	C472.054230,507.483459 472.101654,508.098297 472.030670,509.655853 
	C472.067749,511.548370 472.104828,513.440918 472.003876,516.063599 
	C472.049133,517.544800 472.094391,519.026001 472.023010,521.488037 
	C472.016022,523.151123 471.943298,524.816956 472.012787,526.476868 
	C472.440094,536.686707 482.652344,541.327576 489.640015,537.564514 
	C498.080627,533.019043 506.228546,527.923645 514.444153,522.968567 
	C524.296631,517.026184 534.068604,510.950439 543.909546,504.988678 
	C552.882568,499.552582 561.901245,494.191620 571.451721,488.884186 
	C571.653381,488.590790 571.855042,488.297394 571.996155,487.995392 
	C571.996155,487.995392 572.006042,488.055695 572.527344,487.892487 
z"/>
<path fill="#59CB76" opacity="1.000000" stroke="none" 
	d="
M493.766296,643.879700 
	C491.570770,645.637451 489.121735,647.243591 486.334106,648.923340 
	C488.501312,647.240662 491.007050,645.484375 493.766296,643.879700 
z"/>
<path fill="#59CB76" opacity="1.000000" stroke="none" 
	d="
M501.777740,639.114807 
	C500.962402,639.998535 499.802673,640.923645 498.308289,641.897522 
	C499.126862,641.016296 500.280090,640.086182 501.777740,639.114807 
z"/>
<path fill="#59CB76" opacity="1.000000" stroke="none" 
	d="
M513.670532,633.036316 
	C513.195557,633.626038 512.393799,634.238098 511.281921,634.894531 
	C511.762482,634.312134 512.553101,633.685364 513.670532,633.036316 
z"/>
<path fill="#59CB76" opacity="1.000000" stroke="none" 
	d="
M508.766937,635.790833 
	C508.499603,636.215454 508.025818,636.536011 507.266052,636.910645 
	C507.506866,636.538818 508.033691,636.112793 508.766937,635.790833 
z"/>
<path fill="#59CB76" opacity="1.000000" stroke="none" 
	d="
M504.806824,637.865051 
	C504.524658,638.285217 504.039276,638.583862 503.268921,638.932495 
	C503.523804,638.569458 504.063690,638.156494 504.806824,637.865051 
z"/>
<path fill="#59CB76" opacity="1.000000" stroke="none" 
	d="
M480.810883,652.138794 
	C480.595337,652.642029 480.082611,653.221680 479.283508,653.890991 
	C479.502686,653.392151 480.008179,652.803650 480.810883,652.138794 
z"/>
<path fill="#3FC48F" opacity="1.000000" stroke="none" 
	d="
M470.158142,596.322266 
	C470.294006,596.270142 470.600464,596.366577 470.998901,596.708130 
	C470.820099,596.818787 470.566071,596.658020 470.158142,596.322266 
z"/>
<path fill="#22D5E6" opacity="1.000000" stroke="none" 
	d="
M378.971802,617.667847 
	C377.265076,617.053589 374.943634,616.464111 374.143982,615.027527 
	C363.575287,596.040527 350.939484,578.159363 343.517792,557.326904 
	C345.671875,556.999939 347.514526,557.140503 349.328308,556.971313 
	C353.724609,556.561157 357.855591,556.271912 359.766968,561.710327 
	C359.998169,562.368042 363.512848,562.823303 364.559387,562.065491 
	C367.757019,559.750122 370.514618,556.819885 373.403198,554.086304 
	C378.390076,549.367065 380.833374,549.030823 387.261292,551.718567 
	C388.603638,552.279907 390.427490,552.220093 391.886566,551.862854 
	C395.071106,551.083313 398.163757,549.928528 401.293945,548.927002 
	C401.437073,549.326782 401.580200,549.726562 401.723328,550.126282 
	C402.844513,548.719238 403.965698,547.312195 405.314148,546.160645 
	C407.271088,549.248840 408.541962,552.549133 410.839233,554.803406 
	C414.193390,558.094788 415.170074,561.584900 414.089478,565.926941 
	C408.193207,571.760254 402.082916,577.395203 396.449860,583.472534 
	C387.540588,593.084351 382.708527,604.915649 378.971802,617.667847 
z"/>
<path fill="#24AFDB" opacity="1.000000" stroke="none" 
	d="
M414.397034,565.788086 
	C415.170074,561.584900 414.193390,558.094788 410.839233,554.803406 
	C408.541962,552.549133 407.271088,549.248840 405.213440,545.832397 
	C403.539093,542.795776 401.858185,540.466003 400.903320,537.869141 
	C396.516022,525.937561 392.331512,513.931335 388.075256,501.633850 
	C388.063507,500.891876 388.050690,500.467987 388.015320,499.710571 
	C387.683655,498.557922 387.374573,497.738739 387.066223,496.455933 
	C387.056061,494.007782 386.935028,492.016693 387.052460,490.039734 
	C387.736420,478.520935 388.297882,466.990021 389.290833,455.496918 
	C389.654999,451.281616 391.085754,447.158417 392.123260,442.650757 
	C393.461914,439.593689 394.892853,436.947601 395.923431,434.153778 
	C404.746094,410.235657 420.605988,391.811249 441.004761,377.157837 
	C460.666412,363.033875 483.032562,356.143768 507.453064,354.022400 
	C516.192566,354.584900 524.557556,354.559692 532.721069,355.829834 
	C548.274719,358.249725 563.023071,363.539185 576.572693,371.526276 
	C582.186401,374.835388 586.660828,377.055267 591.016418,370.379669 
	C591.156372,370.165161 591.628357,370.167328 591.917603,370.438660 
	C590.909119,373.863281 589.928650,376.917755 588.714233,380.170410 
	C587.626709,380.931458 586.773071,381.494324 585.919373,382.057190 
	C576.993958,377.049561 568.427246,371.178253 559.041016,367.280182 
	C549.876892,363.474304 540.013306,360.885132 530.209595,359.198212 
	C516.045471,356.761017 501.866302,357.605865 487.654938,360.808136 
	C469.500793,364.898834 453.264740,372.293152 438.570465,383.730072 
	C429.138580,391.071106 420.977325,399.461426 414.137329,409.108887 
	C406.636932,419.687775 400.806763,431.061127 396.587494,443.520050 
	C392.595215,455.308655 390.532867,467.362640 390.347260,479.424652 
	C390.119690,494.215607 392.613007,508.999451 398.016052,522.992615 
	C403.597473,537.447571 411.435608,550.599976 421.783051,562.568115 
	C419.468811,563.808228 417.086700,564.728699 414.397034,565.788086 
z"/>
<path fill="#0EB0B5" opacity="1.000000" stroke="none" 
	d="
M588.948120,379.972198 
	C589.928650,376.917755 590.909119,373.863281 592.073914,370.086487 
	C598.145386,350.728546 600.458557,331.982117 594.007751,312.963806 
	C603.320862,318.125916 612.643433,323.270935 621.938965,328.464569 
	C623.796936,329.502655 625.551208,330.726227 627.693237,331.961548 
	C634.041077,342.477722 635.778442,353.774506 635.093445,365.620117 
	C634.854492,369.753723 634.999146,373.909546 634.638550,378.616821 
	C633.703125,379.705170 632.552429,380.255554 632.574097,380.755096 
	C632.894592,388.138062 628.539246,393.889282 625.588135,400.012726 
	C624.403076,402.471832 621.339722,404.604553 618.665833,405.507263 
	C617.447937,405.918427 614.976685,403.114441 613.301453,401.528412 
	C611.752258,400.061676 610.550781,398.234528 609.117920,396.636292 
	C606.588074,393.814484 602.719177,391.444641 601.699829,388.172516 
	C599.562500,381.312012 595.313293,379.412201 588.948120,379.972198 
z"/>
<path fill="#3FC48F" opacity="1.000000" stroke="none" 
	d="
M633.198853,461.025208 
	C633.086853,451.898315 629.606873,443.692963 626.174133,435.482635 
	C624.525452,431.539368 622.770752,427.640381 621.348145,423.467987 
	C622.060303,423.406494 622.488525,423.598389 622.916687,423.790283 
	C624.061707,424.698029 625.360229,425.467712 626.323669,426.538788 
	C629.545349,430.120300 633.002563,431.148163 637.330322,428.362122 
	C638.651001,427.511871 640.446777,427.425446 641.990234,426.889191 
	C644.327637,426.077209 647.070984,425.707489 648.876404,424.220520 
	C655.562134,418.714142 662.308960,413.183655 668.263062,406.929413 
	C671.158569,403.887817 672.351685,399.225616 674.815308,395.319885 
	C675.606995,395.560730 675.898865,395.778839 676.190674,395.996918 
	C676.507446,397.080231 676.824158,398.163544 676.973267,399.870239 
	C677.591125,403.645782 678.376709,406.797974 679.162292,409.950165 
	C679.433472,410.749146 679.704651,411.548126 679.853943,412.854614 
	C679.876709,413.915039 680.021423,414.467957 680.166077,415.020905 
	C680.448486,418.058441 680.730896,421.095947 680.799561,424.915283 
	C680.384216,429.797333 680.182617,433.897583 679.678284,438.142639 
	C676.131470,442.646515 673.484924,447.678253 669.507507,451.211853 
	C663.036194,456.961090 655.691284,461.726318 648.721313,466.915222 
	C643.550537,470.764679 642.480286,470.659332 637.713806,466.401642 
	C636.826477,465.609039 635.379395,465.443115 634.190674,464.987946 
	C634.131836,464.566589 634.072998,464.145233 633.945801,463.130066 
	C633.651245,462.032593 633.425049,461.528900 633.198853,461.025208 
z"/>
<path fill="#12B5AC" opacity="1.000000" stroke="none" 
	d="
M622.929016,423.424316 
	C622.488525,423.598389 622.060303,423.406494 621.423096,423.100616 
	C617.394775,417.410492 614.110535,411.354340 609.635559,406.366547 
	C602.229187,398.111481 594.055481,390.544800 586.062256,382.372620 
	C586.773071,381.494324 587.626709,380.931458 588.714233,380.170410 
	C595.313293,379.412201 599.562500,381.312012 601.699829,388.172516 
	C602.719177,391.444641 606.588074,393.814484 609.117920,396.636292 
	C610.550781,398.234528 611.752258,400.061676 613.301453,401.528412 
	C614.976685,403.114441 617.447937,405.918427 618.665833,405.507263 
	C621.339722,404.604553 624.403076,402.471832 625.588135,400.012726 
	C628.539246,393.889282 632.894592,388.138062 632.574097,380.755096 
	C632.552429,380.255554 633.703125,379.705170 634.624146,379.084747 
	C631.250305,392.572510 627.561523,406.154114 623.870361,419.735107 
	C623.568665,420.845062 623.251404,421.950745 622.929016,423.424316 
z"/>
<path fill="#4DC786" opacity="1.000000" stroke="none" 
	d="
M673.127197,386.150360 
	C673.977905,387.667999 674.574463,389.427490 675.151917,391.560638 
	C674.379517,390.086945 673.626282,388.239594 673.127197,386.150360 
z"/>
<path fill="#4DC786" opacity="1.000000" stroke="none" 
	d="
M676.177979,395.656158 
	C675.898865,395.778839 675.606995,395.560730 675.122803,395.147430 
	C674.970764,394.479645 675.011169,394.007050 675.116211,393.181915 
	C675.508972,393.658020 675.837158,394.486694 676.177979,395.656158 
z"/>
<path fill="#09B6F4" opacity="1.000000" stroke="none" 
	d="
M338.924530,411.982666 
	C344.174255,397.167664 351.925079,383.748291 361.284302,371.159302 
	C377.679840,349.105865 397.612274,330.883392 421.531219,317.510803 
	C443.590576,305.177795 467.190125,296.817017 492.713379,294.972565 
	C496.514709,294.697845 500.306915,294.297180 504.522034,294.320801 
	C503.734283,296.165283 502.668884,297.792664 501.294617,299.093811 
	C497.455536,302.728607 493.490662,306.230591 489.570312,309.779358 
	C488.848450,310.432800 488.154266,311.538452 487.359894,311.624054 
	C480.532349,312.360077 477.125854,317.534637 473.158905,322.110596 
	C469.158417,326.725281 465.214020,331.453613 460.725586,335.565094 
	C453.964203,341.758545 446.759308,347.468658 439.716034,353.352020 
	C439.093811,353.871735 438.293457,354.449829 437.541748,354.501099 
	C429.649597,355.039642 425.451172,361.593475 419.842072,365.650848 
	C413.198334,370.456726 407.404480,376.428253 401.163483,381.803070 
	C396.374603,385.927307 391.270447,389.702393 386.652924,394.004578 
	C379.938660,400.260223 373.602570,406.920410 366.946228,413.240662 
	C365.565216,414.551941 363.581329,415.486908 361.713501,415.970703 
	C358.282074,416.859436 356.108856,418.653290 354.095642,421.703613 
	C352.725952,423.778900 349.354797,425.052460 346.693054,425.453949 
	C345.843292,425.582123 344.376740,421.774597 343.230682,419.746277 
	C341.774933,417.169891 340.358154,414.571533 338.924530,411.982666 
z"/>
<path fill="#0FBEEC" opacity="1.000000" stroke="none" 
	d="
M506.987549,354.019623 
	C483.032562,356.143768 460.666412,363.033875 441.004761,377.157837 
	C420.605988,391.811249 404.746094,410.235657 395.923431,434.153778 
	C394.892853,436.947601 393.461914,439.593689 391.773560,442.727600 
	C386.771423,446.599121 382.228485,450.072968 377.649048,453.497955 
	C371.746338,457.912567 365.826782,462.305023 359.872009,466.648743 
	C359.391541,466.999207 358.517822,466.760651 357.937622,467.032349 
	C354.106995,468.825928 349.313446,469.654510 349.548431,475.564178 
	C349.578796,476.327637 348.577698,477.184204 347.954010,477.911560 
	C346.270081,479.875366 344.315857,481.643982 342.860321,483.759430 
	C339.804443,488.200745 331.161407,492.048798 325.984070,490.997650 
	C326.175812,480.894043 326.367584,470.790436 326.992340,460.563965 
	C329.702484,464.191925 332.070221,464.022705 334.771637,460.791229 
	C336.038757,459.275452 337.466888,457.366333 339.185120,456.854706 
	C344.350555,455.316528 346.551239,452.196716 345.375580,446.073486 
	C350.794525,448.319489 351.273804,444.517426 353.430756,441.621948 
	C356.224792,437.871185 360.521057,433.527557 364.721466,432.848969 
	C378.789001,430.576294 388.604523,422.124817 398.089478,412.799927 
	C402.488190,408.475525 406.547211,403.807251 410.806946,399.339386 
	C415.095306,394.841522 419.077667,389.957275 423.843170,386.029968 
	C432.114655,379.213409 440.851379,372.956573 449.477997,366.579956 
	C451.160553,365.336273 453.491241,364.927246 455.074219,363.598511 
	C461.033386,358.596771 466.792786,353.357697 472.656891,348.241760 
	C475.242065,345.986420 478.131805,344.033569 480.475250,341.557251 
	C485.532990,336.212799 493.381653,333.762909 496.287720,326.144928 
	C496.748505,324.936981 498.213654,323.952362 499.429626,323.223328 
	C502.645477,321.295166 505.979370,319.563904 509.511536,317.619232 
	C508.561066,316.199036 507.756531,314.996948 506.554413,313.200775 
	C508.297607,313.386505 509.367188,313.238739 510.175781,313.630157 
	C514.647888,315.794861 517.492676,314.439514 520.053833,310.262146 
	C521.266418,308.284302 523.940674,306.760803 526.269531,305.994995 
	C532.349731,303.995697 535.940002,299.831573 535.000000,294.991455 
	C547.769409,297.888367 560.538818,300.785309 573.650757,304.250336 
	C574.295410,308.159760 573.456360,310.545258 569.706970,311.547485 
	C567.893188,312.032379 566.250366,313.527588 564.773254,314.839142 
	C556.996765,321.743774 549.351807,328.797852 541.511292,335.627899 
	C540.387573,336.606781 538.471680,336.752533 536.882629,337.104614 
	C533.829590,337.781097 529.851013,337.326447 527.847229,339.119171 
	C521.937622,344.406494 515.699890,348.924683 508.430939,352.072906 
	C507.789124,352.350861 507.461212,353.353516 506.987549,354.019623 
z"/>
<path fill="#0CBAEF" opacity="1.000000" stroke="none" 
	d="
M534.574646,294.971680 
	C535.940002,299.831573 532.349731,303.995697 526.269531,305.994995 
	C523.940674,306.760803 521.266418,308.284302 520.053833,310.262146 
	C517.492676,314.439514 514.647888,315.794861 510.175781,313.630157 
	C509.367188,313.238739 508.297607,313.386505 506.554413,313.200775 
	C507.756531,314.996948 508.561066,316.199036 509.511536,317.619232 
	C505.979370,319.563904 502.645477,321.295166 499.429626,323.223328 
	C498.213654,323.952362 496.748505,324.936981 496.287720,326.144928 
	C493.381653,333.762909 485.532990,336.212799 480.475250,341.557251 
	C478.131805,344.033569 475.242065,345.986420 472.656891,348.241760 
	C466.792786,353.357697 461.033386,358.596771 455.074219,363.598511 
	C453.491241,364.927246 451.160553,365.336273 449.477997,366.579956 
	C440.851379,372.956573 432.114655,379.213409 423.843170,386.029968 
	C419.077667,389.957275 415.095306,394.841522 410.806946,399.339386 
	C406.547211,403.807251 402.488190,408.475525 398.089478,412.799927 
	C388.604523,422.124817 378.789001,430.576294 364.721466,432.848969 
	C360.521057,433.527557 356.224792,437.871185 353.430756,441.621948 
	C351.273804,444.517426 350.794525,448.319489 345.375580,446.073486 
	C346.551239,452.196716 344.350555,455.316528 339.185120,456.854706 
	C337.466888,457.366333 336.038757,459.275452 334.771637,460.791229 
	C332.070221,464.022705 329.702484,464.191925 327.192749,460.206055 
	C326.968384,459.228485 326.976593,458.485992 327.341522,457.345215 
	C328.881042,456.254150 330.063904,455.561310 331.246735,454.868469 
	C330.158691,453.577911 329.070648,452.287384 327.982605,450.996857 
	C327.984161,450.553528 327.985748,450.110168 328.227325,449.259827 
	C328.632385,448.227600 328.797485,447.602356 328.962585,446.977112 
	C329.903015,434.869812 333.192139,423.410309 338.698303,412.241302 
	C340.358154,414.571533 341.774933,417.169891 343.230682,419.746277 
	C344.376740,421.774597 345.843292,425.582123 346.693054,425.453949 
	C349.354797,425.052460 352.725952,423.778900 354.095642,421.703613 
	C356.108856,418.653290 358.282074,416.859436 361.713501,415.970703 
	C363.581329,415.486908 365.565216,414.551941 366.946228,413.240662 
	C373.602570,406.920410 379.938660,400.260223 386.652924,394.004578 
	C391.270447,389.702393 396.374603,385.927307 401.163483,381.803070 
	C407.404480,376.428253 413.198334,370.456726 419.842072,365.650848 
	C425.451172,361.593475 429.649597,355.039642 437.541748,354.501099 
	C438.293457,354.449829 439.093811,353.871735 439.716034,353.352020 
	C446.759308,347.468658 453.964203,341.758545 460.725586,335.565094 
	C465.214020,331.453613 469.158417,326.725281 473.158905,322.110596 
	C477.125854,317.534637 480.532349,312.360077 487.359894,311.624054 
	C488.154266,311.538452 488.848450,310.432800 489.570312,309.779358 
	C493.490662,306.230591 497.455536,302.728607 501.294617,299.093811 
	C502.668884,297.792664 503.734283,296.165283 504.975281,294.324615 
	C514.723022,294.292267 524.436157,294.622070 534.574646,294.971680 
M338.710358,423.081696 
	C338.898285,423.048798 339.086182,423.015930 339.274109,422.983063 
	C339.089264,422.937836 338.904388,422.892609 338.710358,423.081696 
z"/>
<path fill="#16C6E6" opacity="1.000000" stroke="none" 
	d="
M507.453033,354.022400 
	C507.461212,353.353516 507.789124,352.350861 508.430939,352.072906 
	C515.699890,348.924683 521.937622,344.406494 527.847229,339.119171 
	C529.851013,337.326447 533.829590,337.781097 536.882629,337.104614 
	C538.471680,336.752533 540.387573,336.606781 541.511292,335.627899 
	C549.351807,328.797852 556.996765,321.743774 564.773254,314.839142 
	C566.250366,313.527588 567.893188,312.032379 569.706970,311.547485 
	C573.456360,310.545258 574.295410,308.159760 573.990479,304.403503 
	C579.751831,305.987579 585.515808,307.986633 591.667236,310.035461 
	C592.609802,310.874146 593.164978,311.663055 593.864014,312.707886 
	C600.458557,331.982117 598.145386,350.728546 592.101929,369.716309 
	C591.628357,370.167328 591.156372,370.165161 591.016418,370.379669 
	C586.660828,377.055267 582.186401,374.835388 576.572693,371.526276 
	C563.023071,363.539185 548.274719,358.249725 532.721069,355.829834 
	C524.557556,354.559692 516.192566,354.584900 507.453033,354.022400 
z"/>
<path fill="#16C6E6" opacity="1.000000" stroke="none" 
	d="
M325.981903,491.453003 
	C331.161407,492.048798 339.804443,488.200745 342.860321,483.759430 
	C344.315857,481.643982 346.270081,479.875366 347.954010,477.911560 
	C348.577698,477.184204 349.578796,476.327637 349.548431,475.564178 
	C349.313446,469.654510 354.106995,468.825928 357.937622,467.032349 
	C358.517822,466.760651 359.391541,466.999207 359.872009,466.648743 
	C365.826782,462.305023 371.746338,457.912567 377.649048,453.497955 
	C382.228485,450.072968 386.771423,446.599121 391.680267,443.070099 
	C391.085754,447.158417 389.654999,451.281616 389.290833,455.496918 
	C388.297882,466.990021 387.736420,478.520935 387.052460,490.039734 
	C386.935028,492.016693 387.056061,494.007782 386.896545,496.701050 
	C387.163391,498.287872 387.600616,499.165955 388.037842,500.044067 
	C388.050690,500.467987 388.063507,500.891876 387.689575,501.656494 
	C385.872986,502.677399 384.473450,503.433319 383.006348,504.020294 
	C380.745300,504.924988 378.418182,505.664307 376.156006,506.566345 
	C374.014099,507.420349 371.668976,508.054382 369.860718,509.390656 
	C366.838257,511.624207 364.141785,514.307129 361.369141,516.867004 
	C360.057007,518.078491 358.377106,519.230286 357.733002,520.772217 
	C353.286011,531.418091 344.921112,535.265808 334.004364,534.963379 
	C331.737366,524.908936 329.316833,514.885498 327.276855,504.785248 
	C326.426941,500.577271 326.387665,496.205566 325.981903,491.453003 
z"/>
<path fill="#1CD0E8" opacity="1.000000" stroke="none" 
	d="
M334.137817,535.307495 
	C344.921112,535.265808 353.286011,531.418091 357.733002,520.772217 
	C358.377106,519.230286 360.057007,518.078491 361.369141,516.867004 
	C364.141785,514.307129 366.838257,511.624207 369.860718,509.390656 
	C371.668976,508.054382 374.014099,507.420349 376.156006,506.566345 
	C378.418182,505.664307 380.745300,504.924988 383.006348,504.020294 
	C384.473450,503.433319 385.872986,502.677399 387.688507,501.974548 
	C392.331512,513.931335 396.516022,525.937561 400.903320,537.869141 
	C401.858185,540.466003 403.539093,542.795776 404.986237,545.576904 
	C403.965698,547.312195 402.844513,548.719238 401.723328,550.126282 
	C401.580200,549.726562 401.437073,549.326782 401.293945,548.927002 
	C398.163757,549.928528 395.071106,551.083313 391.886566,551.862854 
	C390.427490,552.220093 388.603638,552.279907 387.261292,551.718567 
	C380.833374,549.030823 378.390076,549.367065 373.403198,554.086304 
	C370.514618,556.819885 367.757019,559.750122 364.559387,562.065491 
	C363.512848,562.823303 359.998169,562.368042 359.766968,561.710327 
	C357.855591,556.271912 353.724609,556.561157 349.328308,556.971313 
	C347.514526,557.140503 345.671875,556.999939 343.372772,556.998901 
	C340.025879,549.882263 337.148560,542.766907 334.137817,535.307495 
z"/>
<path fill="#0FBEEC" opacity="1.000000" stroke="none" 
	d="
M327.947266,451.376251 
	C329.070648,452.287384 330.158691,453.577911 331.246735,454.868469 
	C330.063904,455.561310 328.881042,456.254150 327.349121,456.973511 
	C327.303986,455.251892 327.607971,453.503754 327.947266,451.376251 
z"/>
<path fill="#0FBEEC" opacity="1.000000" stroke="none" 
	d="
M328.786865,447.200439 
	C328.797485,447.602356 328.632385,448.227600 328.235504,448.927429 
	C328.206146,448.475922 328.408630,447.949829 328.786865,447.200439 
z"/>
<path fill="#4DC786" opacity="1.000000" stroke="none" 
	d="
M634.120361,465.425232 
	C635.379395,465.443115 636.826477,465.609039 637.713806,466.401642 
	C642.480286,470.659332 643.550537,470.764679 648.721313,466.915222 
	C655.691284,461.726318 663.036194,456.961090 669.507507,451.211853 
	C673.484924,447.678253 676.131470,442.646515 679.694885,438.497223 
	C680.352905,439.804932 680.691589,440.902863 681.030273,442.000793 
	C680.995850,444.040771 680.961365,446.080750 680.590698,448.744141 
	C679.847229,453.252747 679.440125,457.137939 679.033020,461.023102 
	C679.021362,461.458008 679.009644,461.892944 678.966553,462.652649 
	C677.278259,467.709534 675.148621,472.335327 674.056335,477.194336 
	C671.183228,489.975494 664.548218,500.609070 656.187683,510.359497 
	C652.846802,514.255737 641.550049,516.316345 637.135498,513.394836 
	C635.912598,512.585510 635.495605,509.728088 635.610229,507.865875 
	C636.241211,497.615814 637.216125,487.387360 637.912170,477.140564 
	C638.051208,475.093781 637.492126,472.999573 637.254944,470.927216 
	C636.844421,470.943726 636.433899,470.960205 636.023376,470.976715 
	C636.023376,476.473511 636.130981,481.973541 635.967896,487.465485 
	C635.906738,489.522644 635.215576,491.561035 634.492615,493.815979 
	C634.143494,485.949951 634.114319,477.875885 634.082520,469.801849 
	C634.077332,468.488708 634.061157,467.175598 634.120361,465.425232 
z"/>
<path fill="#59CB76" opacity="1.000000" stroke="none" 
	d="
M681.060669,441.574341 
	C680.691589,440.902863 680.352905,439.804932 679.997620,438.352417 
	C680.182617,433.897583 680.384216,429.797333 680.796387,425.345093 
	C681.035095,430.378052 681.063110,435.762970 681.060669,441.574341 
z"/>
<path fill="#59CB76" opacity="1.000000" stroke="none" 
	d="
M679.233521,460.687317 
	C679.440125,457.137939 679.847229,453.252747 680.562500,449.180420 
	C680.391785,452.779388 679.912903,456.565460 679.233521,460.687317 
z"/>
<path fill="#4DC786" opacity="1.000000" stroke="none" 
	d="
M679.167542,409.527832 
	C678.376709,406.797974 677.591125,403.645782 676.986755,400.211243 
	C677.836243,402.987793 678.504517,406.046631 679.167542,409.527832 
z"/>
<path fill="#59CB76" opacity="1.000000" stroke="none" 
	d="
M680.287109,414.827881 
	C680.021423,414.467957 679.876709,413.915039 679.878296,413.175232 
	C680.152466,413.537231 680.280334,414.086060 680.287109,414.827881 
z"/>
<path fill="#FE7E43" opacity="1.000000" stroke="none" 
	d="
M576.030273,717.063904 
	C565.242004,730.330994 554.564819,743.690674 543.620117,756.827393 
	C537.884949,763.711243 531.855713,770.372559 525.643982,776.831055 
	C517.710754,785.079407 504.761475,784.073364 497.951538,774.909302 
	C496.788574,773.344421 495.984009,771.513184 495.071899,769.062256 
	C500.189178,746.077209 510.904572,726.998901 527.881531,711.773376 
	C538.383728,702.354736 549.429016,693.522583 560.485596,684.748596 
	C566.710876,679.808472 573.454285,675.521362 579.888733,671.289429 
	C579.074463,673.931580 577.106323,676.729675 577.805847,678.431213 
	C581.168457,686.610840 578.958069,694.755859 578.417786,702.873169 
	C578.100769,707.635315 576.857056,712.335693 576.030273,717.063904 
z"/>
<path fill="#FD643D" opacity="1.000000" stroke="none" 
	d="
M579.964233,670.940063 
	C573.454285,675.521362 566.710876,679.808472 560.485596,684.748596 
	C549.429016,693.522583 538.383728,702.354736 527.881531,711.773376 
	C510.904572,726.998901 500.189178,746.077209 495.041382,768.706665 
	C484.754181,763.852356 482.438141,755.725098 485.478607,742.896912 
	C493.506683,709.025208 516.113770,687.380798 544.750732,670.634521 
	C561.988770,660.553955 579.415527,650.795837 596.768311,640.911804 
	C597.918091,640.257019 599.159851,639.763672 601.118286,639.107971 
	C607.627808,639.348083 608.625854,640.567810 607.669495,646.157410 
	C607.506531,647.109802 607.240112,648.044495 606.861694,649.171692 
	C606.478699,649.593445 606.238525,649.812317 605.641602,650.052063 
	C604.523560,651.048523 603.745300,652.005554 602.686157,653.143616 
	C600.062622,655.128540 597.703369,656.911377 595.380554,658.740417 
	C590.232056,662.794556 585.101868,666.872070 579.964233,670.940063 
z"/>
<path fill="#FC8A41" opacity="1.000000" stroke="none" 
	d="
M579.888672,671.289429 
	C585.101868,666.872070 590.232056,662.794556 595.380554,658.740417 
	C597.703369,656.911377 600.062622,655.128540 602.953491,652.993286 
	C604.328247,651.778748 605.154846,650.895691 605.981445,650.012573 
	C606.238525,649.812317 606.478699,649.593445 607.192261,649.090576 
	C618.989502,638.922058 630.365295,629.096130 641.570435,619.079224 
	C646.242371,614.902710 650.550842,610.319641 655.024597,605.921448 
	C650.360474,614.125061 646.401550,622.838318 640.906555,630.441467 
	C620.473816,658.713257 599.539734,686.622803 578.768738,714.649719 
	C578.186523,715.435303 577.320435,716.010559 576.308472,716.873901 
	C576.857056,712.335693 578.100769,707.635315 578.417786,702.873169 
	C578.958069,694.755859 581.168457,686.610840 577.805847,678.431213 
	C577.106323,676.729675 579.074463,673.931580 579.888672,671.289429 
z"/>
<path fill="#FE7E43" opacity="1.000000" stroke="none" 
	d="
M654.983215,605.593262 
	C650.550842,610.319641 646.242371,614.902710 641.570435,619.079224 
	C630.365295,629.096130 618.989502,638.922058 607.352051,648.906250 
	C607.240112,648.044495 607.506531,647.109802 607.669495,646.157410 
	C608.625854,640.567810 607.627808,639.348083 601.464539,639.020203 
	C604.105164,637.085876 607.248901,635.279175 610.197510,633.196228 
	C623.192932,624.016235 636.102966,614.715088 649.127991,605.577637 
	C650.781250,604.417786 652.801880,601.092102 654.983215,605.593262 
z"/>
<path fill="#A1E457" opacity="1.000000" stroke="none" 
	d="
M523.415955,681.036255 
	C528.238953,674.142639 535.035156,669.560303 543.650635,667.047363 
	C537.281250,671.707825 530.523132,676.358398 523.415955,681.036255 
z"/>
<path fill="#A1E457" opacity="1.000000" stroke="none" 
	d="
M518.428589,685.255310 
	C519.507629,683.939514 520.911133,682.514954 522.679565,681.081055 
	C521.614014,682.430054 520.183472,683.788269 518.428589,685.255310 
z"/>
<path fill="#7333F7" opacity="1.000000" stroke="none" 
	d="
M472.159973,500.796906 
	C472.113403,498.505585 472.066833,496.214264 472.211304,493.295807 
	C472.327454,492.095276 472.252594,491.521881 472.177734,490.948486 
	C472.127808,489.555725 472.077911,488.162994 472.243835,486.072144 
	C472.371521,483.961670 472.283386,482.549255 472.195251,481.136841 
	C472.148407,466.020508 471.811493,450.897675 472.149628,435.789978 
	C472.404968,424.381775 480.965668,419.236115 491.156372,424.262817 
	C498.310699,427.791748 505.008392,432.239960 511.954407,436.199799 
	C517.229187,439.206848 522.601685,442.042542 527.878479,445.046326 
	C531.751648,447.251129 535.540161,449.604767 539.634583,452.392639 
	C539.067139,453.579895 538.311584,454.408813 537.383545,454.931183 
	C527.712769,460.374359 517.968933,465.689270 508.336060,471.198242 
	C498.831757,476.633636 489.603607,482.582031 479.900848,487.625305 
	C476.075165,489.613770 474.146301,491.928070 474.074188,495.930084 
	C473.972229,501.590088 474.064575,507.253571 474.022858,513.362671 
	C473.861328,516.174622 473.750854,518.539429 473.395935,520.819092 
	C472.814209,520.658325 472.476929,520.582764 472.139648,520.507202 
	C472.094391,519.026001 472.049133,517.544800 472.285583,515.362610 
	C472.427856,512.678772 472.288483,510.695953 472.149109,508.713135 
	C472.101654,508.098297 472.054230,507.483459 472.269043,506.249512 
	C472.407501,504.019226 472.283722,502.408081 472.159973,500.796906 
z"/>
<path fill="#AF1FF2" opacity="1.000000" stroke="none" 
	d="
M474.073853,512.915588 
	C474.064575,507.253571 473.972229,501.590088 474.074188,495.930084 
	C474.146301,491.928070 476.075165,489.613770 479.900848,487.625305 
	C489.603607,482.582031 498.831757,476.633636 508.336060,471.198242 
	C517.968933,465.689270 527.712769,460.374359 537.383545,454.931183 
	C538.311584,454.408813 539.067139,453.579895 539.959412,452.546875 
	C549.986755,458.143585 560.019043,463.986938 569.899170,470.076935 
	C574.091431,472.661011 575.294067,480.103088 572.712036,486.728180 
	C572.299011,487.527954 572.141846,487.785309 572.006042,488.055695 
	C572.006042,488.055695 571.996155,487.995392 571.823242,488.116028 
	C571.381042,488.398071 571.130920,488.585052 570.899841,488.797607 
	C561.901245,494.191620 552.882568,499.552582 543.909546,504.988678 
	C534.068604,510.950439 524.296631,517.026184 514.444153,522.968567 
	C506.228546,527.923645 498.080627,533.019043 489.640015,537.564514 
	C482.652344,541.327576 472.440094,536.686707 472.012787,526.476868 
	C471.943298,524.816956 472.016022,523.151123 472.081329,520.997620 
	C472.476929,520.582764 472.814209,520.658325 473.671844,521.133545 
	C474.450806,522.650208 474.861664,523.756104 474.944366,524.886047 
	C475.712952,535.390442 482.582184,539.196350 491.754761,534.118896 
	C494.807404,532.429138 497.804108,530.636230 500.799591,528.845703 
	C516.919617,519.210510 533.086304,509.651611 549.119141,499.873383 
	C555.770325,495.816864 562.483093,491.717682 568.512939,486.829926 
	C573.693604,482.630493 573.459473,476.781067 568.081055,472.827850 
	C563.887878,469.745819 558.812683,467.806946 553.986267,465.685883 
	C552.870972,465.195740 550.938293,465.640442 549.777222,466.325348 
	C540.233643,471.954803 530.740234,477.672485 521.314941,483.498291 
	C505.535492,493.251648 489.817627,503.104584 474.073853,512.915588 
z"/>
<path fill="#AF1FF2" opacity="1.000000" stroke="none" 
	d="
M472.089905,509.184509 
	C472.288483,510.695953 472.427856,512.678772 472.354584,514.997559 
	C472.104828,513.440918 472.067749,511.548370 472.089905,509.184509 
z"/>
<path fill="#AF1FF2" opacity="1.000000" stroke="none" 
	d="
M472.099030,501.249695 
	C472.283722,502.408081 472.407501,504.019226 472.340515,505.947571 
	C472.112518,504.743988 472.075287,503.223236 472.099030,501.249695 
z"/>
<path fill="#AF1FF2" opacity="1.000000" stroke="none" 
	d="
M472.131531,481.531494 
	C472.283386,482.549255 472.371521,483.961670 472.323425,485.660339 
	C472.147400,484.606476 472.107605,483.266296 472.131531,481.531494 
z"/>
<path fill="#AF1FF2" opacity="1.000000" stroke="none" 
	d="
M472.116913,491.300568 
	C472.252594,491.521881 472.327454,492.095276 472.288147,492.871277 
	C472.134674,492.600159 472.095367,492.126404 472.116913,491.300568 
z"/>
<path fill="#4DC786" opacity="1.000000" stroke="none" 
	d="
M633.134888,461.331665 
	C633.425049,461.528900 633.651245,462.032593 633.925293,462.810425 
	C633.672363,462.602448 633.371643,462.120270 633.134888,461.331665 
z"/>
<path fill="#C814EB" opacity="1.000000" stroke="none" 
	d="
M571.175781,488.840881 
	C571.130920,488.585052 571.381042,488.398071 571.853516,488.120300 
	C571.855042,488.297394 571.653381,488.590790 571.175781,488.840881 
z"/>
<path fill="#C814EB" opacity="1.000000" stroke="none" 
	d="
M572.266724,487.974091 
	C572.141846,487.785309 572.299011,487.527954 572.624146,487.109955 
	C572.689697,487.255035 572.608521,487.573761 572.266724,487.974091 
z"/>
<path fill="#1CD0E8" opacity="1.000000" stroke="none" 
	d="
M388.015320,499.710571 
	C387.600616,499.165955 387.163391,498.287872 386.895813,497.164673 
	C387.374573,497.738739 387.683655,498.557922 388.015320,499.710571 
z"/>
<path fill="#09B6F4" opacity="1.000000" stroke="none" 
	d="
M338.714966,422.964539 
	C338.904388,422.892609 339.089264,422.937836 339.274109,422.983063 
	C339.086182,423.015930 338.898285,423.048798 338.714966,422.964539 
z"/>
<path fill="#FE7E43" opacity="1.000000" stroke="none" 
	d="
M605.641663,650.052124 
	C605.154846,650.895691 604.328247,651.778748 603.234375,652.812134 
	C603.745300,652.005554 604.523560,651.048523 605.641663,650.052124 
z"/>
<path fill="#C814EB" opacity="1.000000" stroke="none" 
	d="
M474.022827,513.362671 
	C489.817627,503.104584 505.535492,493.251648 521.314941,483.498291 
	C530.740234,477.672485 540.233643,471.954803 549.777222,466.325348 
	C550.938293,465.640442 552.870972,465.195740 553.986267,465.685883 
	C558.812683,467.806946 563.887878,469.745819 568.081055,472.827850 
	C573.459473,476.781067 573.693604,482.630493 568.512939,486.829926 
	C562.483093,491.717682 555.770325,495.816864 549.119141,499.873383 
	C533.086304,509.651611 516.919617,519.210510 500.799591,528.845703 
	C497.804108,530.636230 494.807404,532.429138 491.754761,534.118896 
	C482.582184,539.196350 475.712952,535.390442 474.944366,524.886047 
	C474.861664,523.756104 474.450806,522.650208 473.916290,521.218750 
	C473.750854,518.539429 473.861328,516.174622 474.022827,513.362671 
z"/>
</svg>